<svg xmlns="http://www.w3.org/2000/svg" version="1.1" xmlns:xlink="http://www.w3.org/1999/xlink" xmlns:svgjs="http://svgjs.dev/svgjs" width="1000" height="1125" viewBox="0 0 1000 1125"><g transform="matrix(1,0,0,1,1.7053025658242404e-13,0)"><svg viewBox="0 0 320 360" data-background-color="#ffffff" preserveAspectRatio="xMidYMid meet" height="1125" width="1000" xmlns="http://www.w3.org/2000/svg" xmlns:xlink="http://www.w3.org/1999/xlink"><g id="tight-bounds" transform="matrix(1,0,0,1,0,0)"><svg viewBox="0 0 320 360" height="360" width="320"><g><svg></svg></g><g><svg viewBox="0 0 320 360" height="360" width="320"><g><path xmlns="http://www.w3.org/2000/svg" d="M20.961 227.22l3.726 4.658-1.863-6.056c-0.466-2.795-3.726 0.466-1.863 1.398M25.153 224.425c1.397 2.329 2.795 4.658 2.795 6.987 0 3.261 2.795 4.658 5.123 5.589-3.261-3.726-5.124-13.974-7.918-12.576M204.017 26.929c7.918 0 15.371-0.932 23.756 0.931 20.495 5.124 37.729 15.371 49.374 29.811l32.606 52.169c1.397 13.042 4.192 27.482 3.726 43.319 3.261 0 2.795-4.658 6.521-5.59-3.726 9.316-5.59 20.961-6.521 34.469-2.329-7.453 0-18.632 0.466-24.687-3.261 5.124-5.124 1.397-5.124-0.932 0.466-3.726-1.397-3.261-2.795-4.658-5.124-4.658-8.384-9.782-12.11-17.7 2.329-6.055 2.795-14.905-4.658-19.563-2.329-1.397-5.124-3.726-6.521-7.453-1.863-5.124-5.124-11.179-4.193-19.097 0.466-2.329-6.987 5.124-11.179 1.863-18.166-12.576-36.332-27.016-58.224-39.127-11.645 0-20.029-4.192-24.221-9.316-3.726-4.658-0.932-10.713 4.658-11.179 3.261 0 6.987-0.932 9.782 0.932 0.466-1.863 2.329-4.192 4.657-4.192M157.904 16.215l0.932 0.466c4.658 0.932 6.987 7.453 12.11 5.124 0 3.261 0.466 6.521-0.466 8.85-1.397 3.726-5.59 3.726-8.85 3.726-31.208-1.863-49.374 11.179-68.471 22.358-5.124 3.261-10.713 5.59-14.906 9.782-20.029 18.632-41.921 35.866-47.045 70.335l-4.192 38.195c-0.466 4.192-5.124 8.384-4.192 13.508l3.26 22.824c-3.261-3.261-5.124 0.932-4.192 2.795 0.466 1.397 2.329 6.055 5.124 1.863 3.726 6.987 7.453 20.495 12.576 26.55 15.837 18.632 36.332 35.4 53.101 52.169 4.192-0.932 7.453-0.932 8.384-3.727 1.397 2.795-1.397 5.59-3.726 6.056 7.453 4.658 15.837 8.85 27.016 9.781 14.44 0.932 27.948 3.261 40.524 6.522 6.521-1.863 13.042-2.795 20.029-3.261 2.329 0 3.726-3.726 6.521-4.658l0.466-4.658c2.795 4.192 2.329-1.397 0.466-4.192 3.261 2.795 4.192 5.124 5.589 6.987 0-1.397 3.726-6.521 3.727-0.466l0.931-6.055c1.397-0.932 1.863 5.124 3.261 0.931 1.397-4.192 4.192-0.932 6.987-2.329-0.932 1.863-0.466 5.59 2.794 3.261l3.727-3.261c2.329 5.59 6.055 3.261 7.918 2.329 20.495-13.042 40.99-28.413 60.553-43.784l-0.466 6.055 2.329-7.453c2.329 2.329 4.192 0.466 5.124-0.931 2.795-4.658 6.521-9.316 12.577-13.508-7.453 20.029-16.303 35.866-27.482 48.908l-4.658 5.59c0 3.261-0.932 7.453-4.658 7.918-1.863 0.466-5.59-0.932-8.384 1.863-1.397 1.863 3.261 5.59-0.466 2.795-3.261-2.329-6.521 0-10.248 0.932-2.795 0.932 1.863 3.726 2.795 5.589 0.932 1.863 1.863 3.726 1.398 6.056l-5.124-5.59c-6.055 3.261-9.782 9.316-14.906 13.974-2.329 1.863-1.397 5.124-1.397 7.918-3.261 0-6.987-0.932-8.85 0.932-1.397 1.863-0.932 4.658-0.932 7.453-4.658-0.466-5.124-7.453-9.315-6.056-4.192 0.932-8.85 1.397-12.577 3.727 2.795 5.59-4.658 2.329-3.726 3.26-6.987-4.192-13.042-7.453-20.495-4.658-15.837-5.124-35.4-2.795-49.84-0.931 0-2.329 0.466-4.658-0.466-5.124-0.932 2.329-3.726 1.397-3.26 1.397-8.85-6.055-17.7-9.782-27.016-14.905-8.384 0.932-16.303-3.261-18.632-5.59-6.521-6.055-13.974-2.795-20.029-4.192-13.042-3.261-17.7-16.769-19.098-26.084-0.932-4.658-4.658-6.521-6.055-6.056-6.055-19.563-15.371-37.263-22.824-55.429-1.863-4.658-1.397-9.316-1.397-14.44 2.329 0.932 4.658 0.466 4.192-2.794-2.329-15.371-7.918-27.016-13.974-38.195 3.261-15.837 3.726-34.469 11.179-48.443 6.521-12.576 18.632-19.098 27.016-29.811 2.795-3.726 2.795-8.85 5.59-12.11 9.316-9.316 18.632-19.098 28.879-27.482 4.658-3.726 10.247 0 17.234-1.397 2.329-8.384 11.645-15.837 20.495-13.508 3.726 0.932 11.179-8.85 13.508-9.782 3.726-1.397 1.863 3.726 1.863 6.987 8.85-6.987 20.961-10.713 32.14-14.906" fill="#ba3b0a" fill-rule="nonzero" stroke="none" stroke-width="1" stroke-linecap="butt" stroke-linejoin="miter" stroke-miterlimit="10" stroke-dasharray="" stroke-dashoffset="0" font-family="none" font-weight="none" font-size="none" text-anchor="none" style="mix-blend-mode: normal" data-fill-palette-color="tertiary"></path></g><g transform="matrix(1,0,0,1,64,106.99584340850551)"><svg viewBox="0 0 192 146.00831318298899" height="146.00831318298899" width="192"><g><svg viewBox="0 0 192 146.00831318298899" height="146.00831318298899" width="192"><g><svg viewBox="0 0 192 146.00831318298899" height="146.00831318298899" width="192"><g transform="matrix(1,0,0,1,0,87.25538578498787)"><svg viewBox="0 0 192 58.75292739800113" height="58.75292739800113" width="192"><g><svg viewBox="0 0 192 58.75292739800113" height="58.75292739800113" width="192"><g><svg viewBox="0 0 192 41.52051835853131" height="41.52051835853131" width="192"><g transform="matrix(1,0,0,1,0,0)"><svg width="192" viewBox="-0.7300000190734863 -37.5 180.83999633789062 39.11000061035156" height="41.52051835853131" data-palette-color="#ba3b0a"><path d="M18.36-33.15L18.36-33.15Q18.36-32.23 17.94-31.49 17.53-30.76 16.85-30.25 16.16-29.74 15.33-29.39 14.5-29.05 13.72-28.91L13.72-28.91Q13.62-23.39 13.31-18.26 12.99-13.13 12.3-7.67L12.3-7.67 12.6-7.67Q13.38-7.67 14.14-7.5 14.89-7.32 15.5-6.91 16.11-6.49 16.48-5.88 16.85-5.27 16.85-4.39L16.85-4.39Q16.85-3.27 16.14-2.44 15.43-1.61 14.28-1.03 13.13-0.44 11.72-0.05 10.3 0.34 8.89 0.56 7.47 0.78 6.2 0.88 4.93 0.98 4.15 0.98L4.15 0.98Q3.56 0.98 2.71 0.93 1.86 0.88 1.1 0.63 0.34 0.39-0.2-0.1-0.73-0.59-0.73-1.42L-0.73-1.42Q-0.73-2.44-0.32-3.25 0.1-4.05 0.78-4.69 1.46-5.32 2.32-5.71 3.17-6.1 4.05-6.3L4.05-6.3Q4.39-8.98 4.69-11.65 4.98-14.31 5.08-17.04L5.08-17.04Q5.18-19.82 5.27-22.53 5.37-25.24 5.47-27.98L5.47-27.98Q5.13-27.93 4.83-27.91 4.54-27.88 4.3-27.88L4.3-27.88Q3.61-27.88 2.83-28.03 2.05-28.17 1.37-28.54 0.68-28.91 0.22-29.44-0.24-29.98-0.24-30.81L-0.24-30.81Q-0.24-32.47 1.15-33.54 2.54-34.62 4.47-35.21 6.4-35.79 8.4-36.01 10.4-36.23 11.62-36.23L11.62-36.23Q12.3-36.23 13.43-36.13 14.55-36.04 15.65-35.69 16.75-35.35 17.55-34.77 18.36-34.18 18.36-33.15ZM47.46-20.95L47.46-20.95Q47.46-19.87 47.36-17.9 47.26-15.92 46.99-13.55 46.73-11.18 46.24-8.72 45.75-6.25 44.97-4.25 44.19-2.25 43.06-0.95 41.94 0.34 40.38 0.34L40.38 0.34Q38.91 0.34 37.69-0.51 36.47-1.37 35.5-2.61 34.52-3.86 33.79-5.27 33.05-6.69 32.57-7.86L32.57-7.86Q31.54-10.35 30.52-12.77 29.49-15.19 28.56-17.68L28.56-17.68 28.56-16.31Q28.56-14.21 28.54-12.13 28.51-10.06 28.22-8.01L28.22-8.01Q28.12-7.18 28-6.08 27.88-4.98 27.63-3.91 27.39-2.83 26.93-1.9 26.46-0.98 25.68-0.54L25.68-0.54Q25.24-0.29 24.88-0.24 24.51-0.2 24.07-0.1L24.07-0.1 23.92-0.1Q22.8-0.1 22.02-0.85 21.24-1.61 20.7-2.81 20.16-4 19.85-5.49 19.53-6.98 19.36-8.42 19.19-9.86 19.14-11.08 19.09-12.3 19.09-13.04L19.09-13.04Q19.09-14.16 19.19-16.33 19.28-18.51 19.6-21.14 19.92-23.78 20.43-26.56 20.94-29.35 21.77-31.62 22.6-33.89 23.78-35.33 24.95-36.77 26.51-36.77L26.51-36.77Q28.02-36.77 29.22-35.6 30.42-34.42 31.35-32.81 32.27-31.2 32.91-29.44 33.54-27.69 33.98-26.51L33.98-26.51Q34.81-24.22 35.59-21.95 36.37-19.68 37.11-17.33L37.11-17.33Q37.16-17.24 37.3-16.8 37.45-16.36 37.64-15.82L37.64-15.82Q37.84-15.23 38.13-14.5L38.13-14.5Q38.13-15.14 38.11-15.41 38.08-15.67 38.08-15.89 38.08-16.11 38.08-16.46 38.08-16.8 38.08-17.53L38.08-17.53Q38.03-19.14 38.01-20.75 37.99-22.36 37.99-23.93L37.99-23.93Q37.99-24.61 38.01-25.83 38.03-27.05 38.16-28.44 38.28-29.83 38.52-31.25 38.77-32.67 39.23-33.81 39.69-34.96 40.4-35.69 41.11-36.43 42.14-36.43L42.14-36.43Q43.36-36.43 44.24-35.5 45.11-34.57 45.7-33.13 46.29-31.69 46.63-29.91 46.97-28.13 47.17-26.42 47.36-24.71 47.41-23.24 47.46-21.78 47.46-20.95ZM70.6-35.25L70.6-35.25Q70.6-33.4 69.33-31.88 68.06-30.37 66.23-29.17 64.4-27.98 62.4-27.1 60.4-26.22 58.93-25.63L58.93-25.63Q58.93-24.61 58.88-23.54 58.83-22.46 58.74-21.39L58.74-21.39Q60.3-22.17 62.25-22.85 64.2-23.54 65.96-23.54L65.96-23.54Q67.38-23.54 68.28-22.95 69.18-22.36 69.18-20.9L69.18-20.9Q69.18-19.29 68.04-18.02 66.89-16.75 65.28-15.77 63.67-14.79 61.91-14.11 60.15-13.43 58.93-13.04L58.93-13.04Q58.93-11.43 58.88-9.84 58.83-8.25 58.74-6.69L58.74-6.69Q58.69-5.91 58.56-4.74 58.44-3.56 58.08-2.47 57.71-1.37 57.03-0.56 56.34 0.24 55.27 0.24L55.27 0.24Q54.24 0.24 53.51-0.76 52.78-1.76 52.27-3.32 51.75-4.88 51.44-6.81 51.12-8.74 50.95-10.6 50.78-12.45 50.75-14.01 50.73-15.58 50.73-16.41L50.73-16.41Q50.73-17.04 50.75-18.29 50.78-19.53 50.8-21.04 50.83-22.56 50.9-24.22 50.97-25.88 51.07-27.37 51.17-28.86 51.34-30 51.51-31.15 51.75-31.69L51.75-31.69Q52.29-32.76 54.32-33.81 56.34-34.86 58.83-35.67 61.32-36.47 63.69-36.99 66.06-37.5 67.33-37.5L67.33-37.5Q67.91-37.5 68.48-37.43 69.04-37.35 69.53-37.11 70.01-36.87 70.31-36.43 70.6-35.99 70.6-35.25ZM82.02 1.61L82.02 1.61Q79.05 1.61 76.85 0.12 74.65-1.37 73.21-3.88 71.77-6.4 71.06-9.72 70.35-13.04 70.35-16.7L70.35-16.7Q70.35-20.12 71.11-23.63 71.87-27.15 73.43-29.98 74.99-32.81 77.39-34.62 79.78-36.43 83.1-36.43L83.1-36.43Q86.32-36.43 88.49-34.69 90.67-32.96 91.96-30.2 93.25-27.44 93.82-24.02 94.38-20.61 94.38-17.19L94.38-17.19Q94.38-13.38 93.62-9.99 92.86-6.59 91.33-4 89.79-1.42 87.47 0.1 85.15 1.61 82.02 1.61ZM82.61-25.63L82.61-25.63Q81.68-25.63 81.02-24.9 80.36-24.17 79.92-22.97 79.48-21.78 79.29-20.29 79.09-18.8 79.09-17.29L79.09-17.29Q79.09-15.58 79.31-13.87 79.53-12.16 79.97-10.79 80.41-9.42 81.07-8.59 81.73-7.76 82.66-7.76L82.66-7.76Q83.73-7.76 84.37-8.84 85-9.91 85.37-11.43 85.73-12.94 85.86-14.55 85.98-16.16 85.98-17.24L85.98-17.24Q85.98-18.55 85.81-20.02 85.64-21.48 85.25-22.73 84.86-23.97 84.22-24.8 83.59-25.63 82.61-25.63ZM125.53-20.95L125.53-20.95Q125.53-19.87 125.43-17.9 125.33-15.92 125.06-13.55 124.79-11.18 124.31-8.72 123.82-6.25 123.04-4.25 122.26-2.25 121.13-0.95 120.01 0.34 118.45 0.34L118.45 0.34Q116.98 0.34 115.76-0.51 114.54-1.37 113.56-2.61 112.59-3.86 111.86-5.27 111.12-6.69 110.63-7.86L110.63-7.86Q109.61-10.35 108.58-12.77 107.56-15.19 106.63-17.68L106.63-17.68 106.63-16.31Q106.63-14.21 106.61-12.13 106.58-10.06 106.29-8.01L106.29-8.01Q106.19-7.18 106.07-6.08 105.95-4.98 105.7-3.91 105.46-2.83 104.99-1.9 104.53-0.98 103.75-0.54L103.75-0.54Q103.31-0.29 102.94-0.24 102.58-0.2 102.14-0.1L102.14-0.1 101.99-0.1Q100.87-0.1 100.09-0.85 99.31-1.61 98.77-2.81 98.23-4 97.91-5.49 97.6-6.98 97.43-8.42 97.26-9.86 97.21-11.08 97.16-12.3 97.16-13.04L97.16-13.04Q97.16-14.16 97.26-16.33 97.35-18.51 97.67-21.14 97.99-23.78 98.5-26.56 99.01-29.35 99.84-31.62 100.67-33.89 101.85-35.33 103.02-36.77 104.58-36.77L104.58-36.77Q106.09-36.77 107.29-35.6 108.49-34.42 109.41-32.81 110.34-31.2 110.98-29.44 111.61-27.69 112.05-26.51L112.05-26.51Q112.88-24.22 113.66-21.95 114.44-19.68 115.18-17.33L115.18-17.33Q115.22-17.24 115.37-16.8 115.52-16.36 115.71-15.82L115.71-15.82Q115.91-15.23 116.2-14.5L116.2-14.5Q116.2-15.14 116.18-15.41 116.15-15.67 116.15-15.89 116.15-16.11 116.15-16.46 116.15-16.8 116.15-17.53L116.15-17.53Q116.1-19.14 116.08-20.75 116.05-22.36 116.05-23.93L116.05-23.93Q116.05-24.61 116.08-25.83 116.1-27.05 116.23-28.44 116.35-29.83 116.59-31.25 116.84-32.67 117.3-33.81 117.76-34.96 118.47-35.69 119.18-36.43 120.2-36.43L120.2-36.43Q121.43-36.43 122.3-35.5 123.18-34.57 123.77-33.13 124.36-31.69 124.7-29.91 125.04-28.13 125.23-26.42 125.43-24.71 125.48-23.24 125.53-21.78 125.53-20.95ZM153.41-7.23L153.41-7.23Q153.41-6.25 153.23-4.88 153.06-3.52 152.58-2.27 152.09-1.03 151.26-0.17 150.43 0.68 149.06 0.68L149.06 0.68Q147.25 0.68 146.35-0.63 145.45-1.95 145.06-3.78 144.67-5.62 144.59-7.52 144.52-9.42 144.47-10.55L144.47-10.55Q140.95-9.96 137.54-9.52L137.54-9.52Q137.44-8.4 137.12-6.74 136.8-5.08 136.14-3.54 135.49-2 134.44-0.88 133.39 0.24 131.87 0.24L131.87 0.24Q130.7 0.24 130.04-0.61 129.38-1.46 129.04-2.64 128.7-3.81 128.63-5.05 128.55-6.3 128.55-7.13L128.55-7.13Q128.55-9.91 128.99-12.62 129.43-15.33 130.02-18.02L130.02-18.02Q130.31-19.43 130.8-21.34 131.29-23.24 131.99-25.27 132.7-27.29 133.65-29.27 134.61-31.25 135.83-32.81 137.05-34.38 138.61-35.35 140.17-36.33 142.08-36.33L142.08-36.33Q143.93-36.33 145.3-35.5 146.67-34.67 147.69-33.3 148.72-31.93 149.4-30.2 150.09-28.47 150.55-26.68 151.01-24.9 151.33-23.19 151.65-21.48 151.89-20.17L151.89-20.17Q152.53-16.99 152.97-13.75 153.41-10.5 153.41-7.23ZM143.98-17.68L143.98-19.09Q143.98-19.68 143.91-21.02 143.84-22.36 143.59-23.71 143.35-25.05 142.83-26.1 142.32-27.15 141.44-27.15L141.44-27.15Q140.95-27.15 140.51-26.49 140.08-25.83 139.73-24.83 139.39-23.83 139.12-22.61 138.85-21.39 138.66-20.26 138.46-19.14 138.37-18.24 138.27-17.33 138.22-16.94L138.22-16.94Q141.15-17.19 143.98-17.68L143.98-17.68ZM180.11-32.32L180.11-32.32Q180.11-30.57 179.67-28.39 179.23-26.22 178.57-23.97 177.91-21.73 177.16-19.6 176.4-17.48 175.82-15.77L175.82-15.77Q175.42-14.7 174.96-13.11 174.5-11.52 173.89-9.77 173.28-8.01 172.54-6.25 171.81-4.49 170.93-3.1 170.05-1.71 169-0.83 167.95 0.05 166.73 0.05L166.73 0.05Q165.71 0.05 164.76-0.88 163.8-1.81 162.95-3.25 162.09-4.69 161.34-6.47 160.58-8.25 159.97-9.96 159.36-11.67 158.94-13.13 158.53-14.6 158.33-15.38L158.33-15.38Q157.36-19.19 156.48-23.07 155.6-26.95 155.6-30.86L155.6-30.86Q155.6-31.84 155.7-32.89 155.8-33.94 156.19-34.81 156.58-35.69 157.28-36.25 157.99-36.82 159.26-36.82L159.26-36.82Q160.34-36.82 161.24-35.62 162.14-34.42 162.88-32.52 163.61-30.62 164.22-28.27 164.83-25.93 165.37-23.66 165.9-21.39 166.39-19.41 166.88-17.43 167.37-16.26L167.37-16.26Q167.66-17.24 168.22-19.12 168.78-21 169.54-23.24 170.3-25.49 171.2-27.86 172.1-30.22 173.11-32.15 174.11-34.08 175.18-35.3 176.25-36.52 177.38-36.52L177.38-36.52Q178.21-36.52 178.74-36.13 179.28-35.74 179.57-35.11 179.87-34.47 179.99-33.74 180.11-33.01 180.11-32.32Z" opacity="1" transform="matrix(1,0,0,1,0,0)" fill="#ba3b0a" class="undefined-text-0" data-fill-palette-color="primary" id="text-0"></path></svg></g></svg></g><g transform="matrix(1,0,0,1,0,47.579358479481634)"><svg viewBox="0 0 192 11.173568918519491" height="11.173568918519491" width="192"><g transform="matrix(1,0,0,1,0,0)"><svg width="192" viewBox="5.860000133514404 -36.88999938964844 743.3200073242188 43.2599983215332" height="11.173568918519491" data-palette-color="#ba3b0a"><path d="M22.63-35.01L22.63-35.01Q27.49-35.01 32.23-33.57L32.23-33.57 33.23-33.28 31.23-27.61 30.3-27.88Q25.88-29.1 22.24-29.1L22.24-29.1Q18.65-29.1 16.1-27.93 13.55-26.76 13.55-24.93L13.55-24.93Q13.55-23.73 14.69-22.83 15.82-21.92 17.63-21.3 19.43-20.68 21.62-20.07 23.8-19.46 26-18.65 28.2-17.85 30-16.8 31.81-15.75 32.95-14 34.08-12.26 34.08-9.99L34.08-9.99Q34.08-8.52 33.58-7.09 33.08-5.66 31.9-4.27 30.71-2.88 28.97-1.84 27.22-0.81 24.52-0.16 21.83 0.49 18.48 0.49 15.14 0.49 12.45-0.13 9.77-0.76 6.76-1.93L6.76-1.93 5.86-2.27 7.93-8.18 8.89-7.81Q15.06-5.62 19.07-5.62L19.07-5.62Q22.83-5.62 25.16-6.76 27.49-7.91 27.49-9.79L27.49-9.79Q27.49-10.84 26.78-11.67 26.07-12.5 24.88-13.07 23.68-13.65 22.13-14.14 20.58-14.62 18.87-15.09 17.16-15.55 15.45-16.09 13.75-16.63 12.19-17.38 10.64-18.14 9.45-19.09 8.25-20.04 7.54-21.47 6.84-22.9 6.84-24.66L6.84-24.66Q6.84-29.05 11.15-32.03 15.45-35.01 22.63-35.01ZM58.62-0.68L57.69-0.44Q54.1 0.49 51.68 0.49L51.68 0.49Q49.36 0.49 47.69 0.02 46.02-0.44 45.07-1.16 44.11-1.88 43.56-3.02 43.02-4.15 42.84-5.22 42.67-6.3 42.67-7.74L42.67-7.74 42.67-18.97 38.94-18.97 38.94-24.12 42.67-24.12 42.67-31.03 48.68-31.03 48.68-24.12 57.54-24.12 57.54-18.97 48.68-18.97 48.68-8.15Q48.68-7.54 48.89-6.98 49.09-6.42 49.56-5.86 50.02-5.3 50.95-4.97 51.88-4.64 53.15-4.64L53.15-4.64Q53.81-4.64 56.71-5.13L56.71-5.13 57.66-5.3 58.62-0.68ZM68.55-24.12L69.26-22.83Q73.07-24.58 77.39-24.58L77.39-24.58Q80.15-24.58 82.42-23.54L82.42-23.54 83.27-23.14 81.37-18.14 80.41-18.51Q78.71-19.17 76.7-19.17L76.7-19.17Q73.51-19.17 70.55-18.02L70.55-18.02 70.55 0 64.55 0 64.55-24.12 68.55-24.12ZM100.41-24.58L100.41-24.58Q102.51-24.58 104.18-24.13 105.85-23.68 106.94-22.99 108.02-22.29 108.82-21.18 109.61-20.07 110.03-19.06 110.44-18.04 110.67-16.63 110.91-15.21 110.95-14.23 111-13.26 111-11.91L111-11.91 111-9.18 92.86-9.18Q93.38-7.37 95.77-6.04 98.16-4.71 102.07-4.71L102.07-4.71Q104.83-4.71 107.68-5.54L107.68-5.54 108.68-5.83 109.88-1.2 109-0.9Q104.92 0.49 100.31 0.49L100.31 0.49Q97.09 0.49 94.6-0.22 92.11-0.93 90.61-2.05 89.1-3.17 88.14-4.76 87.18-6.35 86.81-7.93 86.44-9.52 86.44-11.33L86.44-11.33Q86.44-14.01 87.21-16.25 87.98-18.48 89.31-20.01 90.64-21.53 92.44-22.58 94.23-23.63 96.23-24.11 98.23-24.58 100.41-24.58ZM99.41-19.12L99.41-19.12Q96.6-19.12 94.91-17.71 93.23-16.31 92.91-14.21L92.91-14.21 105.1-14.21Q104.9-16.85 103.43-17.98 101.97-19.12 99.41-19.12ZM128.75-24.58L128.75-24.58Q131.39-24.58 133.38-24.11 135.37-23.63 136.59-22.85 137.81-22.07 138.56-20.9 139.32-19.73 139.6-18.52 139.88-17.31 139.88-15.82L139.88-15.82 139.88 0 135.39 0 134.71-1.59Q131.46 0.49 127.31 0.49L127.31 0.49Q122.79 0.49 119.99-1.64 117.18-3.76 117.18-6.67L117.18-6.67Q117.18-8.47 118.09-9.81 119.01-11.16 120.5-11.96 121.99-12.77 124.23-13.28 126.48-13.79 128.74-13.99 131-14.18 133.85-14.21L133.85-14.21 133.85-15.04Q133.85-15.97 133.69-16.58 133.53-17.19 133-17.87 132.46-18.55 131.2-18.91 129.95-19.26 127.99-19.26L127.99-19.26Q125.26-19.26 120.74-18.19L120.74-18.19 119.77-17.92 118.52-22.73 119.37-23.02Q123.89-24.58 128.75-24.58ZM133.85-6.23L133.85-6.23 133.85-9.67 133.27-9.67Q128.33-9.67 125.93-9.08 123.53-8.5 123.53-7.1L123.53-7.1Q123.53-6.23 124.99-5.44 126.45-4.66 128.58-4.66L128.58-4.66Q131.58-4.66 133.85-6.23ZM160.39-18.9L160.39-18.9Q158.29-18.9 154.68-17.58L154.68-17.58 154.68 0 148.67 0 148.67-24.12 153.14-24.12 153.82-22.53Q158.14-24.58 162.34-24.58 166.54-24.58 168.91-22.17L168.91-22.17Q173.45-24.56 178.6-24.56L178.6-24.56Q180.85-24.56 182.56-24.02 184.26-23.49 185.3-22.58 186.34-21.68 186.99-20.32 187.63-18.97 187.88-17.54 188.12-16.11 188.12-14.31L188.12-14.31 188.12 0 182.12 0 182.12-14.23Q182.12-16.53 180.91-17.71 179.7-18.9 177.01-18.9L177.01-18.9Q174.74-18.9 171.15-17.58L171.15-17.58Q171.37-16.31 171.37-14.14L171.37-14.14 171.37 0 165.37 0 165.37-14.33Q165.37-18.9 160.39-18.9ZM197.49 0L197.49-36.89 203.5-36.89 203.5 0 197.49 0ZM212.41-28.08L212.41-34.69 219.15-34.69 219.15-28.08 212.41-28.08ZM212.78 0L212.78-24.12 218.78-24.12 218.78 0 212.78 0ZM227.57 0L227.57-24.12 231.77-24.12 232.6-22.46Q237.63-24.61 241.95-24.61L241.95-24.61Q244.29-24.61 246-23.97 247.71-23.34 248.69-22.39 249.66-21.44 250.24-19.98 250.81-18.53 250.98-17.21 251.15-15.89 251.15-14.23L251.15-14.23 251.15 0 245.15 0 245.15-14.16Q245.15-14.84 245.08-15.34 245.02-15.84 244.73-16.59 244.44-17.33 243.93-17.81 243.41-18.29 242.38-18.64 241.34-18.99 239.92-18.99L239.92-18.99Q237.06-18.99 233.57-17.65L233.57-17.65 233.57 0 227.57 0ZM272.68-24.58L272.68-24.58Q274.78-24.58 276.45-24.13 278.13-23.68 279.21-22.99 280.3-22.29 281.09-21.18 281.89-20.07 282.3-19.06 282.72-18.04 282.95-16.63 283.18-15.21 283.23-14.23 283.28-13.26 283.28-11.91L283.28-11.91 283.28-9.18 265.14-9.18Q265.65-7.37 268.04-6.04 270.44-4.71 274.34-4.71L274.34-4.71Q277.1-4.71 279.96-5.54L279.96-5.54 280.96-5.83 282.16-1.2 281.28-0.9Q277.2 0.49 272.58 0.49L272.58 0.49Q269.36 0.49 266.87-0.22 264.38-0.93 262.88-2.05 261.38-3.17 260.41-4.76 259.45-6.35 259.08-7.93 258.72-9.52 258.72-11.33L258.72-11.33Q258.72-14.01 259.49-16.25 260.26-18.48 261.59-20.01 262.92-21.53 264.71-22.58 266.51-23.63 268.51-24.11 270.51-24.58 272.68-24.58ZM271.68-19.12L271.68-19.12Q268.87-19.12 267.19-17.71 265.5-16.31 265.19-14.21L265.19-14.21 277.37-14.21Q277.17-16.85 275.71-17.98 274.25-19.12 271.68-19.12ZM285.99 6.37L290.65-5.15 297.22-5.15 292.55 6.37 285.99 6.37ZM332.95-29.52L332.95-29.52 327.26-29.52 327.26-19.9Q332.56-20.02 334.66-20.39L334.66-20.39Q339.74-21.31 340.08-24.61L340.08-24.61Q340.11-24.88 340.11-25.15L340.11-25.15Q340.11-25.93 339.84-26.6 339.57-27.27 338.87-27.98 338.18-28.69 336.66-29.1 335.15-29.52 332.95-29.52ZM333.34-15.99L333.34-15.99Q333.15-15.99 327.26-15.72L327.26-15.72 327.26-5.66 332.73-5.66Q333.71-5.66 334.41-5.68 335.1-5.69 336.32-5.79 337.54-5.88 338.42-6.07 339.3-6.25 340.35-6.62 341.4-6.98 342.05-7.5 342.69-8.01 343.15-8.8 343.6-9.59 343.6-10.6L343.6-10.6Q343.6-13.11 340.83-14.55 338.06-15.99 333.34-15.99ZM321.11 0L321.11-34.69 334.35-34.69Q336.57-34.69 338.41-34.35 340.25-34.01 341.52-33.46 342.79-32.91 343.78-32.14 344.77-31.37 345.34-30.58 345.92-29.79 346.28-28.89 346.65-28 346.77-27.28 346.89-26.56 346.89-25.85L346.89-25.85Q346.89-24.19 345.99-22.49 345.09-20.78 343.72-19.6L343.72-19.6Q346.45-18.48 348.1-16.1 349.75-13.72 349.75-10.89L349.75-10.89Q349.75-10.08 349.59-9.24 349.43-8.4 348.97-7.3 348.51-6.2 347.76-5.21 347.02-4.22 345.75-3.25 344.48-2.27 342.82-1.57 341.16-0.88 338.73-0.44 336.3 0 333.39 0L333.39 0 321.11 0ZM375.14-6.45L375.14-24.12 381.14-24.12 381.14 0 376.68 0 375.97-1.64Q371.06 0.49 366.52 0.49L366.52 0.49Q364.15 0.49 362.42-0.13 360.69-0.76 359.7-1.72 358.71-2.69 358.12-4.13 357.54-5.57 357.36-6.88 357.19-8.2 357.19-9.86L357.19-9.86 357.19-24.12 363.2-24.12 363.2-9.91Q363.2-9.28 363.26-8.79 363.32-8.3 363.61-7.56 363.91-6.81 364.45-6.32 364.98-5.83 366.06-5.47 367.13-5.1 368.6-5.1L368.6-5.1Q371.53-5.1 375.14-6.45L375.14-6.45ZM389.56-28.08L389.56-34.69 396.3-34.69 396.3-28.08 389.56-28.08ZM389.93 0L389.93-24.12 395.94-24.12 395.94 0 389.93 0ZM405.21 0L405.21-36.89 411.22-36.89 411.22 0 405.21 0ZM419.27-11.67L419.27-11.67Q419.27-17.87 422.95-21.24 426.62-24.61 432.77-24.61L432.77-24.61Q435.63-24.61 438.46-23.78L438.46-23.78 438.46-36.89 444.47-36.89 444.47 0 440.02 0 439.54-1.12Q436 0.49 431.97 0.49L431.97 0.49Q430.06 0.49 428.3 0.11 426.55-0.27 424.87-1.17 423.2-2.08 421.98-3.43 420.76-4.79 420.02-6.91 419.27-9.03 419.27-11.67ZM433.5-4.81L433.5-4.81Q436.04-4.81 438.46-5.66L438.46-5.66 438.46-18.73Q435.87-19.46 433.46-19.46L433.46-19.46Q432.36-19.46 431.33-19.3 430.31-19.14 429.15-18.66 427.99-18.19 427.15-17.43 426.3-16.67 425.74-15.33 425.18-13.99 425.18-12.26L425.18-12.26Q425.18-10.5 425.73-9.13 426.28-7.76 427.13-6.97 427.99-6.18 429.15-5.66 430.31-5.15 431.36-4.98 432.41-4.81 433.5-4.81ZM448.64 6.37L453.3-5.15 459.87-5.15 455.21 6.37 448.64 6.37ZM478.76-29.03L478.76-34.69 510.11-34.69 510.11-29.03 497.51-29.03 497.51 0 491.36 0 491.36-29.03 478.76-29.03ZM518.63-24.12L519.33-22.83Q523.14-24.58 527.46-24.58L527.46-24.58Q530.22-24.58 532.49-23.54L532.49-23.54 533.35-23.14 531.44-18.14 530.49-18.51Q528.78-19.17 526.78-19.17L526.78-19.17Q523.58-19.17 520.63-18.02L520.63-18.02 520.63 0 514.62 0 514.62-24.12 518.63-24.12ZM547.92-24.58L547.92-24.58Q550.56-24.58 552.55-24.11 554.54-23.63 555.76-22.85 556.98-22.07 557.74-20.9 558.49-19.73 558.77-18.52 559.05-17.31 559.05-15.82L559.05-15.82 559.05 0 554.56 0 553.88-1.59Q550.63 0.49 546.48 0.49L546.48 0.49Q541.96 0.49 539.16-1.64 536.35-3.76 536.35-6.67L536.35-6.67Q536.35-8.47 537.26-9.81 538.18-11.16 539.67-11.96 541.16-12.77 543.4-13.28 545.65-13.79 547.91-13.99 550.17-14.18 553.02-14.21L553.02-14.21 553.02-15.04Q553.02-15.97 552.86-16.58 552.71-17.19 552.17-17.87 551.63-18.55 550.37-18.91 549.12-19.26 547.16-19.26L547.16-19.26Q544.43-19.26 539.91-18.19L539.91-18.19 538.94-17.92 537.69-22.73 538.55-23.02Q543.06-24.58 547.92-24.58ZM553.02-6.23L553.02-6.23 553.02-9.67 552.44-9.67Q547.51-9.67 545.1-9.08 542.7-8.5 542.7-7.1L542.7-7.1Q542.7-6.23 544.16-5.44 545.63-4.66 547.75-4.66L547.75-4.66Q550.75-4.66 553.02-6.23ZM567.84 0L567.84-24.12 572.04-24.12 572.87-22.46Q577.9-24.61 582.22-24.61L582.22-24.61Q584.56-24.61 586.27-23.97 587.98-23.34 588.96-22.39 589.94-21.44 590.51-19.98 591.08-18.53 591.25-17.21 591.42-15.89 591.42-14.23L591.42-14.23 591.42 0 585.42 0 585.42-14.16Q585.42-14.84 585.36-15.34 585.3-15.84 585-16.59 584.71-17.33 584.2-17.81 583.69-18.29 582.65-18.64 581.61-18.99 580.19-18.99L580.19-18.99Q577.34-18.99 573.85-17.65L573.85-17.65 573.85 0 567.84 0ZM615.52-7.2L615.52-7.2Q615.47-7.81 614.58-8.28 613.69-8.74 612.3-9.11 610.9-9.47 609.24-9.86 607.58-10.25 605.94-10.83 604.29-11.4 602.92-12.17 601.55-12.94 600.7-14.2 599.84-15.45 599.84-17.07L599.84-17.07Q599.84-18.02 600.2-18.98 600.55-19.95 601.48-20.98 602.41-22.02 603.82-22.8 605.24-23.58 607.61-24.08 609.98-24.58 612.96-24.58L612.96-24.58Q614.71-24.58 616.13-24.4 617.55-24.22 618.13-24.07 618.72-23.93 619.91-23.56L619.91-23.56 620.91-23.27 619.25-18.33 618.33-18.58Q615.15-19.46 612.15-19.46L612.15-19.46Q610.64-19.46 609.49-19.25 608.34-19.04 607.74-18.76 607.14-18.48 606.78-18.1 606.41-17.72 606.31-17.47 606.22-17.21 606.22-16.99L606.22-16.99Q606.22-16.43 607.08-15.97 607.95-15.5 609.34-15.12 610.73-14.75 612.41-14.32 614.08-13.89 615.76-13.28 617.45-12.67 618.84-11.89 620.23-11.11 621.1-9.89 621.96-8.67 621.96-7.15L621.96-7.15Q621.96-6.1 621.66-5.13 621.35-4.15 620.49-3.1 619.62-2.05 618.25-1.28 616.89-0.51 614.57-0.01 612.25 0.49 609.24 0.49L609.24 0.49Q604.56 0.49 599.89-1.42L599.89-1.42 598.99-1.78 600.8-6.67 601.72-6.3Q606.09-4.66 609.46-4.66L609.46-4.66Q612.59-4.66 614.05-5.29 615.52-5.91 615.52-7.2ZM631.9-24.12L631.9-25.56Q631.9-26.37 631.91-26.86 631.92-27.34 632.02-28.2 632.12-29.05 632.3-29.61 632.48-30.18 632.84-30.94 633.19-31.71 633.69-32.21 634.19-32.71 634.97-33.26 635.76-33.81 636.76-34.14 637.76-34.47 639.12-34.68 640.49-34.89 642.15-34.89L642.15-34.89Q645.2-34.89 648.55-33.89L648.55-33.89 649.43-33.62 648.43-28.74 647.4-28.98Q645.08-29.54 643.79-29.54L643.79-29.54Q640.78-29.54 639.34-28.54 637.9-27.54 637.9-25.73L637.9-25.73 637.9-24.12 647.55-24.12 647.55-18.97 637.9-18.97 637.9 0 631.9 0 631.9-18.97 627.92-18.97 627.92-24.12 631.9-24.12ZM665.59-24.58L665.59-24.58Q671.64-24.58 675.34-21.4 679.04-18.21 679.04-12.5L679.04-12.5Q679.04-6.49 675.27-3 671.5 0.49 665.12 0.49L665.12 0.49Q659.07 0.49 655.44-2.8 651.82-6.08 651.82-11.82L651.82-11.82Q651.82-17.7 655.52-21.14 659.21-24.58 665.59-24.58ZM665.2-19.17L665.2-19.17Q663.32-19.17 661.66-18.46 660-17.75 658.86-16.16 657.73-14.58 657.73-12.43L657.73-12.43Q657.73-9.25 659.92-7.09 662.12-4.93 665.64-4.93L665.64-4.93Q668.83-4.93 670.98-6.81 673.13-8.69 673.13-11.79L673.13-11.79Q673.13-13.57 672.42-15.03 671.71-16.48 670.57-17.36 669.42-18.24 668.03-18.7 666.64-19.17 665.2-19.17ZM690.61-24.12L691.32-22.83Q695.13-24.58 699.45-24.58L699.45-24.58Q702.21-24.58 704.48-23.54L704.48-23.54 705.33-23.14 703.43-18.14 702.47-18.51Q700.77-19.17 698.76-19.17L698.76-19.17Q695.56-19.17 692.61-18.02L692.61-18.02 692.61 0 686.6 0 686.6-24.12 690.61-24.12ZM721.44-18.9L721.44-18.9Q719.34-18.9 715.73-17.58L715.73-17.58 715.73 0 709.72 0 709.72-24.12 714.19-24.12 714.87-22.53Q719.2-24.58 723.39-24.58 727.59-24.58 729.96-22.17L729.96-22.17Q734.5-24.56 739.65-24.56L739.65-24.56Q741.9-24.56 743.61-24.02 745.32-23.49 746.36-22.58 747.39-21.68 748.04-20.32 748.69-18.97 748.93-17.54 749.18-16.11 749.18-14.31L749.18-14.31 749.18 0 743.17 0 743.17-14.23Q743.17-16.53 741.96-17.71 740.75-18.9 738.07-18.9L738.07-18.9Q735.8-18.9 732.21-17.58L732.21-17.58Q732.43-16.31 732.43-14.14L732.43-14.14 732.43 0 726.42 0 726.42-14.33Q726.42-18.9 721.44-18.9Z" opacity="1" transform="matrix(1,0,0,1,0,0)" fill="#ba3b0a" class="undefined-text-1" data-fill-palette-color="secondary" id="text-1"></path></svg></g></svg></g></svg></g></svg></g><g transform="matrix(1,0,0,1,46.11178946464529,0)"><svg viewBox="0 0 99.77642107070942 81.19654566403754" height="81.19654566403754" width="99.77642107070942"><g><svg xmlns="http://www.w3.org/2000/svg" xmlns:xlink="http://www.w3.org/1999/xlink" version="1.1" x="0" y="0" viewBox="5 13.379546165466309 90.0009994506836 73.241455078125" enable-background="new 0 0 100 100" xml:space="preserve" height="81.19654566403754" width="99.77642107070942" class="icon-icon-0" data-fill-palette-color="accent" id="icon-0"><g fill="#ba3b0a" data-fill-palette-color="accent"><path fill="#ba3b0a" d="M85.913 67.245c0.77-1.004 1.247-2.244 1.247-3.603v-6.577c0-3.128-2.434-5.673-5.503-5.908L31.436 14.515c-2.252-1.644-5.397-1.488-7.476 0.372L5 31.835v8.234c0 0.015 0 0.029 0 0.044v13.955l0.402 0.356c0.285 0.252 6.782 5.914 14.54 5.914 0.37 0 0.743-0.013 1.117-0.041 4.211-0.301 7.926-2.319 11.044-5.996l0.959-1.13L12.255 42.193l-3.902-2.236L25.24 27.275c1.345-1.012 3.241-0.94 4.505 0.176l26.953 23.73c-2.952 0.349-5.259 2.839-5.259 5.883v6.577c0 1.345 0.466 2.574 1.221 3.572h-8.883c-5.35 0-9.704 4.354-9.704 9.704 0 5.35 4.354 9.704 9.704 9.704h41.52c5.35 0 9.704-4.354 9.704-9.704C95 71.776 90.975 67.566 85.913 67.245zM11.107 44.28l18.168 9.584c-2.456 2.468-5.266 3.83-8.373 4.057-6.206 0.464-11.976-3.727-13.52-4.951V42.147L11.107 44.28zM31.319 25.663c-2.108-1.855-5.268-1.976-7.509-0.292L7.381 37.708V32.9l18.166-16.239c1.244-1.115 3.134-1.209 4.485-0.223l47.522 34.673h-17.33L31.319 25.663zM53.82 63.641v-6.577c0-1.97 1.602-3.572 3.572-3.572h2.381 21.433c1.97 0 3.572 1.602 3.572 3.572H71.399c-0.658 0-1.191 0.533-1.191 1.191 0 0.658 0.533 1.191 1.191 1.191h13.379v4.195c0 1.97-1.602 3.572-3.572 3.572H57.392C55.422 67.214 53.82 65.611 53.82 63.641zM85.296 84.24h-41.52c-4.037 0-7.322-3.285-7.322-7.322s3.285-7.322 7.322-7.322h13.615 23.815 4.09c4.037 0 7.322 3.285 7.322 7.322S89.334 84.24 85.296 84.24z" data-fill-palette-color="accent"></path><path fill="#ba3b0a" d="M46.641 71.779c-2.834 0-5.139 2.305-5.139 5.139s2.305 5.139 5.139 5.139 5.139-2.305 5.139-5.139S49.474 71.779 46.641 71.779zM46.641 79.674c-1.52 0-2.757-1.237-2.757-2.757s1.237-2.757 2.757-2.757c1.52 0 2.757 1.237 2.757 2.757S48.16 79.674 46.641 79.674z" data-fill-palette-color="accent"></path><path fill="#ba3b0a" d="M82.211 71.779c-2.834 0-5.139 2.305-5.139 5.139s2.305 5.139 5.139 5.139 5.139-2.305 5.139-5.139S85.045 71.779 82.211 71.779zM82.211 79.674c-1.52 0-2.757-1.237-2.757-2.757s1.237-2.757 2.757-2.757 2.757 1.237 2.757 2.757S83.731 79.674 82.211 79.674z" data-fill-palette-color="accent"></path></g></svg></g></svg></g><g></g></svg></g></svg></g></svg></g></svg></g><defs></defs></svg><rect width="320" height="360" fill="none" stroke="none" visibility="hidden"></rect></g></svg></g></svg>